<svg width="168" height="24" viewBox="0 0 168 24" fill="none" xmlns="http://www.w3.org/2000/svg"><path fill-rule="evenodd" clip-rule="evenodd" d="M158.597 18V0h3v18a3 3 0 003 3h3v3h-3a6 6 0 01-6-6z" fill="#fff"/><path fill-rule="evenodd" clip-rule="evenodd" d="M167.597 9h-12V6h12v3zm-93 15V0h3v24h-3z" fill="#fff"/><path fill-rule="evenodd" clip-rule="evenodd" d="M77.597 15a6 6 0 1012 0 6 6 0 00-12 0zm6-9a9 9 0 100 18 9 9 0 000-18z" fill="#fff"/><path fill-rule="evenodd" clip-rule="evenodd" d="M113.597 9h-9a6 6 0 000 12h9a6 6 0 100-12zm-9-3a9 9 0 00-9 9 9 9 0 009 9h9a9 9 0 009-9 9 9 0 00-9-9h-9z" fill="url(#paint0_linear_424_410)"/><path fill-rule="evenodd" clip-rule="evenodd" d="M122.597 9h-9a6 6 0 000 12h9a6 6 0 100-12zm-9-3a9 9 0 000 18h9a9 9 0 009-9 9 9 0 00-9-9h-9zm21.283 5.25c0-2.9 2.35-5.25 5.25-5.25h10.78v3h-10.78a2.25 2.25 0 100 4.5h2.894v3h-2.894a5.25 5.25 0 01-5.25-5.25z" fill="#fff"/><path fill-rule="evenodd" clip-rule="evenodd" d="M151.701 18.75a5.25 5.25 0 00-5.25-5.25h-4.364v3h4.364a2.25 2.25 0 110 4.5H135.16v3h11.291a5.25 5.25 0 005.25-5.25z" fill="#fff"/><mask id="mask0_424_410" style="mask-type:alpha" maskUnits="userSpaceOnUse" x="0" y="0" width="78" height="24"><path d="M0 0h77.466v23.86H0V0z" fill="url(#paint1_linear_424_410)"/></mask><g mask="url(#mask0_424_410)" fill-rule="evenodd" clip-rule="evenodd" fill="#fff"><g opacity=".7"><path d="M56.517 24V0h-2.114v24h2.114z"/><path d="M51.363 8.914a6.87 6.87 0 103.006 8.397l1.976.75a8.985 8.985 0 11.026-6.304l-1.982.733a6.872 6.872 0 00-3.026-3.576z"/></g><path opacity=".7" d="M27.408 21.896a6.87 6.87 0 100-13.742 6.87 6.87 0 000 13.742zm0 2.114a8.985 8.985 0 100-17.97 8.985 8.985 0 000 17.97zM11.024 8.155a6.87 6.87 0 104.063 12.355l1.273 1.687a8.985 8.985 0 11-.687-14.814l-1.112 1.798a6.871 6.871 0 00-3.537-1.026z"/><path d="M70.446 21.08a5.71 5.71 0 01-4.078-.007c-1.32-.505-2.454-1.49-3.179-2.811a6.742 6.742 0 01-.82-3.425h14.295l-.196-1.224c-.319-1.99-1.299-3.793-2.763-5.095a7.955 7.955 0 00-5.236-2.035 7.945 7.945 0 00-5.26 1.963c-1.48 1.282-2.483 3.072-2.826 5.056a8.88 8.88 0 00.953 5.777c.959 1.747 2.475 3.08 4.277 3.769a7.825 7.825 0 005.581.01c1.805-.684 3.325-2.011 4.289-3.755l-1.85-1.023c-.73 1.318-1.865 2.3-3.187 2.8zm-7.678-8.357a6.433 6.433 0 011.826-2.68 5.832 5.832 0 013.861-1.446 5.841 5.841 0 013.845 1.5 6.44 6.44 0 011.765 2.626H62.768z"/></g><defs><linearGradient id="paint0_linear_424_410" x1="97.097" y1="18.272" x2="116.502" y2="19.404" gradientUnits="userSpaceOnUse"><stop stop-color="#fff"/><stop offset="1" stop-color="#fff" stop-opacity="0"/></linearGradient><linearGradient id="paint1_linear_424_410" x1="40.319" y1="14.912" x2="77.465" y2="14.568" gradientUnits="userSpaceOnUse"><stop stop-color="#C4C4C4"/><stop offset="1" stop-color="#C4C4C4" stop-opacity="0"/></linearGradient></defs></svg>