<svg width="89" height="24" viewBox="0 0 89 24" fill="none" xmlns="http://www.w3.org/2000/svg"><path d="M81.757 0v17.383c0 2.4 1.946 4.345 4.346 4.345H89M77.412 7.243H89M2.448 0v23.177" stroke="#fff" stroke-width="3.034"/><rect x="2.517" y="7.311" width="14.348" height="14.348" rx="7.174" stroke="#fff" stroke-width="3.034"/><mask id="mask0_424_536" style="mask-type:alpha" maskUnits="userSpaceOnUse" x="21" y="5" width="27" height="19"><rect x="21.28" y="5.795" width="26.074" height="17.383" rx="8.691" fill="url(#paint0_linear_424_536)"/></mask><g mask="url(#mask0_424_536)"><rect opacity=".9" x="22.797" y="7.312" width="23.04" height="14.348" rx="7.174" stroke="#fff" stroke-width="3.034"/></g><rect x="31.489" y="7.312" width="23.04" height="14.348" rx="7.174" stroke="#fff" stroke-width="3.034"/><path d="M74.151 7.243h-10.41c-2 0-3.622 1.621-3.622 3.621v0c0 2 1.622 3.622 3.622 3.622h2.795m-.904 0h4.214c2 0 3.621 1.621 3.621 3.621v0c0 2-1.621 3.622-3.621 3.622H58.942" stroke="#fff" stroke-width="3.034"/><defs><linearGradient id="paint0_linear_424_536" x1="20.375" y1="11.589" x2="42.103" y2="10.412" gradientUnits="userSpaceOnUse"><stop stop-color="#fff"/><stop offset="1" stop-color="#C4C4C4" stop-opacity="0"/></linearGradient></defs></svg>